<svg xmlns="http://www.w3.org/2000/svg" width="200" height="200" viewBox="0 0 200 200">
  <g id="Group_1860" data-name="Group 1860" transform="translate(-174 -134)">
    <g id="Rectangle_313" data-name="Rectangle 313" transform="translate(174 234)" fill="#ff3d6b" stroke="#ff3d6b" stroke-width="1">
      <rect width="100" height="100" stroke="none"/>
      <rect x="0.5" y="0.5" width="99" height="99" fill="none"/>
    </g>
    <g id="Rectangle_314" data-name="Rectangle 314" transform="translate(274 134)" fill="#5b55bb" stroke="#5b55bb" stroke-width="1">
      <rect width="100" height="100" stroke="none"/>
      <rect x="0.5" y="0.5" width="99" height="99" fill="none"/>
    </g>
    <circle id="Ellipse_75" data-name="Ellipse 75" cx="75" cy="75" r="75" transform="translate(199 159)" fill="#e7f0ff"/>
    <g id="Group_1859" data-name="Group 1859" transform="translate(-0.5 -126.444)">
      <g id="Group_1856" data-name="Group 1856" transform="translate(250.5 321.366)">
        <line id="Line_1" data-name="Line 1" y2="74.369" transform="translate(0 0)" fill="none" stroke="#707070" stroke-linecap="round" stroke-width="10"/>
        <line id="Line_3" data-name="Line 3" y2="74.369" transform="translate(0 0)" fill="none" stroke="#5b55bb" stroke-linecap="round" stroke-width="10"/>
        <line id="Line_2" data-name="Line 2" y2="59.84" transform="translate(12.395 14.12)" fill="none" stroke="#5b55bb" stroke-linecap="round" stroke-width="10"/>
        <line id="Line_4" data-name="Line 4" y2="74.369" transform="translate(24.79 0)" fill="none" stroke="#5b55bb" stroke-linecap="round" stroke-width="10"/>
      </g>
      <g id="Group_1858" data-name="Group 1858" transform="translate(253.784 314.291)">
        <rect id="Rectangle_312" data-name="Rectangle 312" width="9.471" height="9.471" rx="4.736" transform="translate(9.133 1.436) rotate(45)" fill="#ff3d6b"/>
      </g>
      <g id="Polygon_1" data-name="Polygon 1" transform="translate(266.096 368.823) rotate(-26)" fill="#5b55bb">
        <path d="M 22.62224960327148 36.68456649780273 L 14.56230926513672 36.68456649780273 C 11.59485912322998 36.68456649780273 8.89185905456543 35.17754745483398 7.331779479980469 32.65327835083008 C 5.77169942855835 30.1290168762207 5.632589340209961 27.03741645812988 6.959669589996338 24.38324737548828 L 10.98964977264404 16.32329750061035 C 11.73384952545166 14.83490657806396 12.8594799041748 13.61623668670654 14.24486923217773 12.79903697967529 C 15.54738903045654 12.03071689605713 17.05069923400879 11.62460708618164 18.5922794342041 11.62460708618164 C 20.13385963439941 11.62460708618164 21.63716888427734 12.03071689605713 22.93968963623047 12.79903697967529 C 24.3250789642334 13.61623668670654 25.45071029663086 14.83490657806396 26.19491004943848 16.32329750061035 L 30.22488975524902 24.38324737548828 C 31.55196952819824 27.03740692138672 31.41286849975586 30.12900733947754 29.8527889251709 32.65327835083008 C 28.29270935058594 35.17753601074219 25.58969879150391 36.68456649780273 22.62224960327148 36.68456649780273 Z" stroke="none"/>
        <path d="M 18.5922794342041 12.12460708618164 C 17.13998031616211 12.12460708618164 15.72451972961426 12.50673675537109 14.49889945983887 13.22969818115234 C 13.19669914245605 13.99782562255859 12.13785934448242 15.1448974609375 11.43685913085938 16.54689788818359 L 7.406888961791992 24.60684776306152 C 6.157869338989258 27.10488700866699 6.288789749145508 30.01462745666504 7.757099151611328 32.39040756225586 C 9.225408554077148 34.76618576049805 11.7694091796875 36.18456649780273 14.56230926513672 36.18456649780273 L 22.62224960327148 36.18456649780273 C 25.41513824462891 36.18456649780273 27.95914077758789 34.76619720458984 29.42745971679688 32.39041900634766 C 30.8957691192627 30.0146369934082 31.02668952941895 27.10489654541016 29.77766990661621 24.60684776306152 L 25.74768829345703 16.54689788818359 C 25.04668807983398 15.1448974609375 23.98785018920898 13.99782562255859 22.68564987182617 13.22969818115234 C 21.46003913879395 12.50673675537109 20.04456901550293 12.12460708618164 18.5922794342041 12.12460708618164 M 18.59227752685547 11.12460708618164 C 21.78802108764648 11.12460708618164 24.9837646484375 12.78296661376953 26.64212036132813 16.09968757629395 L 30.67210006713867 24.15963745117188 C 33.66415023803711 30.14374732971191 29.31268882751465 37.18456649780273 22.62224960327148 37.18456649780273 L 14.56230926513672 37.18456649780273 C 7.871870040893555 37.18456649780273 3.520401000976563 30.14374732971191 6.512458801269531 24.15963745117188 L 10.54242897033691 16.09968757629395 C 12.2007884979248 12.78296661376953 15.39653396606445 11.12460708618164 18.59227752685547 11.12460708618164 Z" stroke="none" fill="#5b55bb"/>
      </g>
    </g>
  </g>
</svg>
